<svg width="34" height="34" viewBox="0 0 34 34" fill="none" xmlns="http://www.w3.org/2000/svg">
<rect width="33.8181" height="33.8181" rx="5" fill="#FFC127"/>
<mask id="path-2-inside-1_346_236" fill="white">
<path d="M14.488 13.4097V11.0768C14.488 9.42212 15.4173 7.95728 17.6311 7.95728H20.0909V11.0497H17.9044L17.6038 11.3481V13.5183H20.7195L20.0909 16.6107H17.6038V25.8609H14.488V16.6107H12.9302V13.5183H14.488"/>
</mask>
<path d="M14.488 13.4097V11.0768C14.488 9.42212 15.4173 7.95728 17.6311 7.95728H20.0909V11.0497H17.9044L17.6038 11.3481V13.5183H20.7195L20.0909 16.6107H17.6038V25.8609H14.488V16.6107H12.9302V13.5183H14.488" fill="black"/>
<path d="M20.0909 7.95728H21.0909V6.95728H20.0909V7.95728ZM20.0909 11.0497V12.0497H21.0909V11.0497H20.0909ZM17.9044 11.0497V10.0497H17.4924L17.2 10.34L17.9044 11.0497ZM17.6038 11.3481L16.8993 10.6384L16.6038 10.9317V11.3481H17.6038ZM17.6038 13.5183H16.6038V14.5183H17.6038V13.5183ZM20.7195 13.5183L21.6995 13.7175L21.9432 12.5183H20.7195V13.5183ZM20.0909 16.6107V17.6107H20.9081L21.0709 16.8099L20.0909 16.6107ZM17.6038 16.6107V15.6107H16.6038V16.6107H17.6038ZM17.6038 25.8609V26.8609H18.6038V25.8609H17.6038ZM14.488 25.8609H13.488V26.8609H14.488V25.8609ZM14.488 16.6107H15.488V15.6107H14.488V16.6107ZM12.9302 16.6107H11.9302V17.6107H12.9302V16.6107ZM12.9302 13.5183V12.5183H11.9302V13.5183H12.9302ZM15.488 13.4097V11.0768H13.488V13.4097H15.488ZM15.488 11.0768C15.488 10.4257 15.671 9.9052 15.977 9.56065C16.265 9.2365 16.7591 8.95728 17.6311 8.95728V6.95728C16.2893 6.95728 15.2119 7.41047 14.4818 8.23242C13.7697 9.03398 13.488 10.0733 13.488 11.0768H15.488ZM17.6311 8.95728H20.0909V6.95728H17.6311V8.95728ZM19.0909 7.95728V11.0497H21.0909V7.95728H19.0909ZM20.0909 10.0497H17.9044V12.0497H20.0909V10.0497ZM17.2 10.34L16.8993 10.6384L18.3082 12.0579L18.6089 11.7595L17.2 10.34ZM16.6038 11.3481V13.5183H18.6038V11.3481H16.6038ZM17.6038 14.5183H20.7195V12.5183H17.6038V14.5183ZM19.7396 13.3191L19.1109 16.4115L21.0709 16.8099L21.6995 13.7175L19.7396 13.3191ZM20.0909 15.6107H17.6038V17.6107H20.0909V15.6107ZM16.6038 16.6107V25.8609H18.6038V16.6107H16.6038ZM17.6038 24.8609H14.488V26.8609H17.6038V24.8609ZM15.488 25.8609V16.6107H13.488V25.8609H15.488ZM14.488 15.6107H12.9302V17.6107H14.488V15.6107ZM13.9302 16.6107V13.5183H11.9302V16.6107H13.9302ZM12.9302 14.5183H14.488V12.5183H12.9302V14.5183Z" fill="black" mask="url(#path-2-inside-1_346_236)"/>
</svg>
