<svg width="34" height="35" viewBox="0 0 34 35" fill="none" xmlns="http://www.w3.org/2000/svg">
<rect x="0.0908203" y="0.290283" width="33.8181" height="33.8181" rx="5" fill="#FFC127"/>
<path d="M9.43579 23.7631V13.5869H12.4808V23.7631H9.43579Z" fill="black" stroke="black"/>
<path d="M12.4808 9.66796C12.4808 10.5004 11.8063 11.1753 10.9583 11.1753C10.1103 11.1753 9.43579 10.5004 9.43579 9.66796C9.43579 8.83549 10.1103 8.16064 10.9583 8.16064C11.8063 8.16064 12.4808 8.83549 12.4808 9.66796Z" fill="black" stroke="black"/>
<path d="M17.9198 14.714L18.8636 14.9444C19.2276 14.243 20.0484 13.6135 21.5902 13.6135C23.2498 13.6135 24.0657 14.0975 24.5132 14.7996C24.9978 15.56 25.1352 16.6925 25.1352 18.1863V23.7627H22.6641V18.8644C22.6641 18.148 22.6438 17.3122 22.3417 16.655C22.1831 16.3099 21.9418 16.0002 21.5816 15.7818C21.2248 15.5655 20.7893 15.4619 20.2783 15.4619C19.7651 15.4619 19.3294 15.5602 18.9735 15.7695C18.6122 15.9819 18.3725 16.2855 18.2175 16.6262C17.9252 17.2687 17.9198 18.0902 17.9198 18.7831V23.7627H15.4487V13.6135H17.9198V14.714Z" fill="black" stroke="black"/>
</svg>
