<svg width="34" height="34" viewBox="0 0 34 34" fill="none" xmlns="http://www.w3.org/2000/svg">
<rect x="0.181885" width="33.8181" height="33.8181" rx="5" fill="#FFC127"/>
<path d="M14.717 20.6227C13.5514 20.6037 12.5558 20.0288 11.9982 19.1796C12.3434 19.1694 12.6786 19.1101 12.9981 19.0308L12.9705 18.0542C11.7178 17.8174 10.7483 16.9132 10.4596 15.7476C10.8022 15.8486 11.1656 15.9091 11.5442 15.9255L13.389 16.0051L11.8364 15.0055C10.9593 14.4408 10.3986 13.4824 10.3986 12.4148C10.3986 12.0865 10.4507 11.7804 10.5483 11.4905C12.4679 13.4774 15.2315 14.7932 18.2084 14.9487L18.8664 14.9831L18.7224 14.3401C18.679 14.1462 18.6525 13.807 18.6525 13.5542C18.6525 12.6726 18.9692 11.9008 19.5179 11.3505C20.0648 10.8019 20.8695 10.4463 21.8969 10.4463C22.8452 10.4463 23.6202 10.8184 24.2162 11.4335L24.4042 11.6276L24.6696 11.5766C25.0229 11.5088 25.3668 11.4188 25.7014 11.3087C25.5111 11.4962 25.2973 11.6592 25.0666 11.79L25.3661 12.7222C25.5244 12.7053 25.6806 12.6841 25.8348 12.6585C25.6474 12.8102 25.4531 12.9525 25.256 13.0829L25.0319 13.2312V13.4999V13.5009V13.5018V13.5028V13.5037V13.5047V13.5056V13.5066V13.5075V13.5085V13.5094V13.5104V13.5113V13.5123V13.5132V13.5142V13.5151V13.516V13.517V13.5179V13.5189V13.5198V13.5208V13.5217V13.5226V13.5236V13.5245V13.5255V13.5264V13.5273V13.5283V13.5292V13.5301V13.5311V13.532V13.5329V13.5339V13.5348V13.5357V13.5367V13.5376V13.5385V13.5395V13.5404V13.5413V13.5422V13.5432V13.5441V13.545V13.546V13.5469V13.5478V13.5487V13.5497V13.5506V13.5515V13.5524V13.5534V13.5543V13.5552V13.5561V13.557V13.558V13.5589V13.5598V13.5607V13.5616V13.5625V13.5635V13.5644V13.5653V13.5662V13.5671V13.568V13.569V13.5699V13.5708V13.5717V13.5726V13.5735V13.5744V13.5754V13.5763V13.5772V13.5781V13.579V13.5799V13.5808V13.5817V13.5826V13.5835V13.5844V13.5854V13.5863V13.5872V13.5881V13.589V13.5899V13.5908V13.5917V13.5926V13.5935V13.5944V13.5953V13.5962V13.5971V13.598V13.5989V13.5998V13.6007V13.6016V13.6025V13.6034V13.6043V13.6052V13.6061V13.607V13.6079V13.6088V13.6097V13.6106V13.6115V13.6124V13.6133V13.6142V13.6151V13.616V13.6169V13.6178V13.6187V13.6195V13.6204V13.6213V13.6222V13.6231V13.624V13.6249V13.6258V13.6267V13.6276V13.6285V13.6294V13.6302V13.6311V13.632V13.6329V13.6338V13.6347V13.6356V13.6365V13.6374V13.6382V13.6391V13.64V13.6409V13.6418V13.6427V13.6436V13.6445V13.6453V13.6462V13.6471V13.648V13.6489V13.6498V13.6506V13.6515V13.6524V13.6533V13.6542V13.6551V13.6559V13.6568V13.6577V13.6586V13.6595V13.6604V13.6612V13.6621V13.663V13.6639V13.6648V13.6656V13.6665V13.6674V13.6683V13.6692V13.6701V13.6709V13.6718V13.6727V13.6736V13.6744V13.6753V13.6762V13.6771V13.678V13.6788V13.6797V13.6806V13.6815V13.6824V13.6832V13.6841V13.685V13.6859V13.6867V13.6876V13.6885V13.6894V13.6903V13.6911V13.692V13.6929V13.6938V13.6946V13.6955V13.6964V13.6973V13.6981V13.699V13.6999V13.7008V13.7016V13.7025V13.7034V13.7043V13.7051V13.706V13.7069V13.7078V13.7086V13.7095V13.7104V13.7113V13.7121V13.713V13.7139V13.7148V13.7156V13.7165V13.7174V13.7183V13.7191V13.72V13.7209V13.7218V13.7226V13.7235V13.7244V13.7253V13.7261V13.727V13.7279V13.7288V13.7296V13.7305V13.7314V13.7323V13.7331V13.734V13.7349V13.7357V13.7366V13.7375V13.7384V13.7392V13.7401V13.741V13.7419V13.7427V13.7436V13.7445V13.7454V13.7462V13.7471V13.748V13.7489V13.7497V13.7506V13.7515V13.7524V13.7532V13.7541V13.755V13.7559V13.7567V13.7576V13.7585V13.7594V13.7602V13.7611V13.762V13.7629V13.7637V13.7646V13.7655V13.7664V13.7673V13.7681V13.769V13.7699V13.7708V13.7716V13.7725V13.7734V13.7743V13.7751V13.776V13.7769V13.7778V13.7787V13.7795V13.7804V13.7813V13.7822V13.783V13.7839V13.7848V13.7857V13.7866V13.7874V13.7883V13.7892V13.7901V13.791V13.7918V13.7927V13.7936V13.7945V13.7954V13.7962V13.7971V13.798V13.7989V13.7998V13.8006V13.8015V13.8024V13.8033V13.8042V13.8051V13.8059V13.8068V13.8077V13.8086V13.8095V13.8104V13.8112V13.8121V13.813V13.8139V13.8148V13.8157V13.8166V13.8174V13.8183V13.8192V13.8201V13.821V13.8219V13.8228V13.8237V13.8245V13.8254V13.8263V13.8272V13.8281V13.829V13.8299V13.8308V13.8317V13.8325V13.8334V13.8343V13.8352V13.8361V13.837V13.8379V13.8388V13.8397V13.8406V13.8415V13.8424V13.8433V13.8441V13.845V13.8459V13.8468V13.8477V13.8486V13.8495V13.8504V13.8513V13.8522V13.8531V13.854V13.8549V13.8558V13.8567V13.8576V13.8585V13.8594V13.8603V13.8612V13.8621V13.863V13.8639V13.8648V13.8657V13.8666V13.8675V13.8684V13.8693V13.8702V13.8711V13.872V13.8729V13.8738V13.8748V13.8757V13.8766V13.8775V13.8784V13.8793V13.8802V13.8811V13.882V13.8829V13.8838V13.8847V13.8857V13.8866V13.8875V13.8884V13.8893V13.8902V13.8911V13.892V13.893V13.8939V13.8948V13.8957V13.8966V13.8975V13.8985V13.8994V13.9003V13.9012V13.9021V13.9031V13.904V13.9049V13.9058V13.9067V13.9077V13.9086V13.9095V13.9104V13.9114V13.9123V13.9132V13.9141V13.9151V13.916V13.9169V13.9178V13.9188V13.9197V13.9206V13.9215V13.9225V13.9234V13.9243V13.9253V13.9262V13.9271V13.9281V13.929V13.9299V13.9309V13.9318V13.9327V13.9337V13.9346V13.9356V13.9365V13.9374V13.9384V13.9393V13.9402V13.9412V13.9421V13.9431V13.944V13.945V13.9459V13.9468V13.9478V13.9487V13.9497V13.9506V13.9516V13.9525V13.9535V13.9544V13.9554V13.9563V13.9573V13.9582V13.9592V13.9601V13.9611C25.0319 18.5129 21.5973 23.7422 15.0095 23.7422C13.6215 23.7422 12.3662 23.5098 11.2267 23.0865C12.644 22.8883 13.9347 22.3392 15.0114 21.5206L16.1617 20.6462L14.717 20.6227Z" fill="black" stroke="black"/>
</svg>
